<svg xmlns="http://www.w3.org/2000/svg" viewBox="114.814 38.5 203.453 21.5" role="img" aria-label="Total Build">
  <path d="M10.726-17.019h4.8a1.9,1.9,0,0,0,1.209-.248,1.45,1.45,0,0,0,.527-1.271,1.387,1.387,0,0,0-.527-1.24,1.9,1.9,0,0,0-1.209-.279H2.511a1.947,1.947,0,0,0-1.24.279,1.387,1.387,0,0,0-.527,1.24,1.45,1.45,0,0,0,.527,1.271,1.947,1.947,0,0,0,1.24.248H7.285V-1.736A2.251,2.251,0,0,0,7.533-.372,1.889,1.889,0,0,0,9.021.186a1.863,1.863,0,0,0,1.457-.558,2.251,2.251,0,0,0,.248-1.364Zm9.455,7.006C20.181-4.03,24.211.434,30.566.434S41.075-4,41.075-10.106c0-5.983-4.03-10.447-10.385-10.447S20.181-16.12,20.181-10.013Zm3.534-.093c0-4.743,2.6-7.533,6.882-7.533s6.944,2.79,6.944,7.626c0,4.743-2.6,7.533-6.882,7.533S23.715-5.27,23.715-10.106Zm30.256-6.913h4.8a1.9,1.9,0,0,0,1.209-.248,1.45,1.45,0,0,0,.527-1.271,1.387,1.387,0,0,0-.527-1.24,1.9,1.9,0,0,0-1.209-.279H45.756a1.947,1.947,0,0,0-1.24.279,1.387,1.387,0,0,0-.527,1.24,1.45,1.45,0,0,0,.527,1.271,1.947,1.947,0,0,0,1.24.248H50.53V-1.736a2.251,2.251,0,0,0,.248,1.364,1.889,1.889,0,0,0,1.488.558,1.863,1.863,0,0,0,1.457-.558,2.251,2.251,0,0,0,.248-1.364ZM76.26-1.488C76.694-.372,77.1.186,78.368.186c1.085,0,1.612-.4,1.612-1.085a2.87,2.87,0,0,0-.248-1.023L73.253-18.29c-.5-1.24-.868-2.077-2.077-2.077-1.24,0-1.643.837-2.139,2.077L62.279-1.922A2.638,2.638,0,0,0,62-.9c0,.682.465,1.085,1.55,1.085,1.4,0,1.7-.682,2.108-1.674l1.674-4.371h7.285ZM71.021-15.314,73.5-8.835H68.479ZM89.063-3.038V-18.383a2.149,2.149,0,0,0-.248-1.333,1.863,1.863,0,0,0-1.457-.558,1.889,1.889,0,0,0-1.488.558,2.149,2.149,0,0,0-.248,1.333v16.74C85.622-.527,85.994,0,87.265,0H95.48a1.9,1.9,0,0,0,1.209-.248,1.45,1.45,0,0,0,.527-1.271,1.387,1.387,0,0,0-.527-1.24,1.9,1.9,0,0,0-1.209-.279ZM125.86-5.7a5.366,5.366,0,0,0-4.247-5.27,4.783,4.783,0,0,0,3.038-4.5c0-3.565-3.193-4.8-7.037-4.8a19.228,19.228,0,0,0-3.162.217c-1.426.279-1.8.868-1.8,2.046V-2.294c0,1.023.062,1.8,1.426,2.17a13.717,13.717,0,0,0,3.286.31,12.913,12.913,0,0,0,5.239-.868A5.25,5.25,0,0,0,125.86-5.7ZM116-17.391s.837-.093,1.519-.093c1.829,0,3.6.651,3.6,2.511a2.506,2.506,0,0,1-1.023,2.046,5.228,5.228,0,0,1-3.286.806H116Zm0,7.967h.713a8.042,8.042,0,0,1,3.875.682,3.082,3.082,0,0,1,1.736,2.914c0,2.325-1.8,3.255-4.867,3.255A8.808,8.808,0,0,1,116-2.666Zm24.924,6.913a5.191,5.191,0,0,1-4.154-1.581,6.69,6.69,0,0,1-1.085-4.4v-9.889a2.251,2.251,0,0,0-.248-1.364,1.766,1.766,0,0,0-1.457-.527,1.8,1.8,0,0,0-1.488.527,2.251,2.251,0,0,0-.248,1.364v9.672c0,2.2,0,4.495,1.829,6.572C135.377-.651,137.423.4,140.895.4c3.286,0,5.456-.961,6.82-2.542,1.829-2.077,1.829-4.619,1.829-6.572v-9.672a2.251,2.251,0,0,0-.248-1.364,1.766,1.766,0,0,0-1.457-.527,1.766,1.766,0,0,0-1.457.527,2.251,2.251,0,0,0-.248,1.364v9.889a6.69,6.69,0,0,1-1.085,4.4A5.122,5.122,0,0,1,140.926-2.511Zm19.809-15.872a2.251,2.251,0,0,0-.248-1.364,1.766,1.766,0,0,0-1.457-.527,1.8,1.8,0,0,0-1.488.527,2.251,2.251,0,0,0-.248,1.364V-1.736a2.356,2.356,0,0,0,.248,1.4,1.8,1.8,0,0,0,1.488.527,1.766,1.766,0,0,0,1.457-.527,2.356,2.356,0,0,0,.248-1.4ZM171.957-3.038V-18.383a2.149,2.149,0,0,0-.248-1.333,1.863,1.863,0,0,0-1.457-.558,1.889,1.889,0,0,0-1.488.558,2.149,2.149,0,0,0-.248,1.333v16.74c0,1.116.372,1.643,1.643,1.643h8.215a1.9,1.9,0,0,0,1.209-.248,1.45,1.45,0,0,0,.527-1.271,1.387,1.387,0,0,0-.527-1.24,1.9,1.9,0,0,0-1.209-.279Zm31.5-7.13c0-4.123-1.674-6.7-3.782-8.153-2.2-1.519-4.991-1.953-8.091-1.953a23.412,23.412,0,0,0-4.216.31c-1.457.31-1.736.868-1.736,2.046V-2.139c0,1.023.155,1.55,1.054,1.86a14.013,14.013,0,0,0,4.154.465c3.1,0,6.138-.434,8.556-2.015C201.5-3.224,203.453-5.735,203.453-10.168Zm-14.384-7.006a15.332,15.332,0,0,1,2.635-.186c2.542,0,4.34.4,5.735,1.488s2.48,2.945,2.48,5.89c0,6.882-5.89,7.254-8.494,7.254a19.7,19.7,0,0,1-2.356-.124Z" transform="translate(114.814 58.814)" fill="#CA7B41"/>
</svg>
